<svg width="200" height="200" viewBox="0 0 200 200" xmlns="http://www.w3.org/2000/svg"><g fill="currentColor" fill-rule="evenodd"><path d="M100 0a100 100 0 1 1 0 200 100 100 0 0 1 0-200zm0 190a90 90 0 1 0 0-180 90 90 0 0 0 0 180zM90 90h20v20H90V90zm20 10V80h20v20h-20zm-10-20H80v20h20V80zm10 0V60h20v20h-20zm-20 20h20v20H80v-20zm-10-20H50v20h20V80zm10 0V60h20v20H80zm-10 20H50v20h20v-20zm20 10V80h20v20h-20zm10-20h20v20h-20V80zm10 10V80h20v20h-20zm-20-20h20v20h-20V60zm-10 10V40h20v20h-20zm10 0V20h20v20h-20zM90 50V30h20v20H90zm20-10V20h20v20h-20zM80 70V50h20v20H80zm-10-20H50v20h20V50zm10 0V30h20v20H80zM70 50V30h20v20H70zM50 70V50h20v20H50zm-10-20H20v20h20V50zm10 0V30h20v20H50zm-10 20H20v20h20V70zm20 10V60h20v20H60zM50 90V70h20v20H50zm-10-20H20v20h20V70zm-10 10H10v20h20V80zm10 0V60h20v20H30zm10-10V50h20v20H40zm10-20V10h20v20H50zM40 30V10h20v20H40zM30 50V30h20v20H30zm-10-20H10v20h20V30zm-10 10V20h20v20H10zM30 70V50h20v20H30zM20 90V70h20v20H20zm-10-20H0v20h20V70zm10 0V50h20v20H10zM0 90V70h20v20H0zM90 150v-20h20v20H90zm20 10v-20h20v20h-20zm-10-20v-20h20v20H100zm-10 0v-20h20v20H90zm-10 10v-20h20v20H80zm-10-20v-20h20v20H70zm-10 10v-20h20v20H60zM50 150v-20h20v20H50zm-10-10v-20h20v20H40zm-10 10v-20h20v20H30zm-10-10v-20h20v20H20zM10 150v-20h20v20H10zm120-20h20v20h-20v-20zm-10 10h20v20h-20v-20zm10 10h20v20h-20v-20zm-20-20h20v20h-20v-20zm-10 10h20v20h-20v-20zm10-20h20v20h-20v-20zm-20-10v-20h20v20h-20zm10 0v-20h20v20h-20zm-10 20v20h20v-20h-20zm-10-10v20h20v-20h-20zm-10 10v20h20v-20h-20zm-10 10v20h20v-20h-20zm-10 10v20h20v-20h-20zm0-20v20h20v-20h-20zm0-20v20h20v-20h-20zm20-10v20h20v-20h-20zm-10-10v20h20v-20h-20zm0-10v20h20v-20h-20zm0-10v20h20v-20h-20zm-10 20v-20h20v20h-20zm-10-10v-20h20v20h-20zM90 170v20h20v-20H90zm20-10v20h20v-20h-20zM80 170v20h20v-20H80zm-20 0v20h20v-20H60zm-20 0v20h20v-20H40zm-20 0v20h20v-20H20zm120 0h20v20h-20v-20zm20 0h20v20h-20v-20zm-50-10v20h20v-20h-20zm-10-10v20h20v-20h-20zM90 190v10h20v-10H90zm-20-10v20h20v-20H70zM50 170v20h20v-20H50zM30 190v10h20v-10H30zm10-20v20h20v-20H40zM10 170v20h20v-20H10zM170 190v10h20v-10h-20zm-20-10v20h20v-20h-20zm-20-10v20h20v-20h-20zM90 0v10h20V0H90zm-10 10V0h20v10H80zm-10 10V10h20v10H70zm-10 10V20h20v10H60zM50 40V30h20v10H50zm-10 10V40h20v10H40zM30 60V50h20v10H30zM20 70V60h20v10H20zM10 80V70h20v10H10zM0 90V80h20v10H0zm80 100V180h20v10H80zm20 0v-10h20v10h-20zm20 0v-10h20v10h-20zm20 0v-10h20v10h-20zm20 0v-10h20v10h-20zM90 10v20h20V10H90z"/></g></svg>